<?xml version="1.0" standalone="no"?>
<!DOCTYPE svg PUBLIC "-//W3C//DTD SVG 20010904//EN"
 "http://www.w3.org/TR/2001/REC-SVG-20010904/DTD/svg10.dtd">
<svg version="1.0" xmlns="http://www.w3.org/2000/svg"
 width="360.000000pt" height="360.000000pt" viewBox="0 0 360.000000 360.000000"
 preserveAspectRatio="xMidYMid meet">

<g transform="translate(0.000000,360.000000) scale(0.100000,-0.100000)"
fill="#000000" stroke="none">
<path d="M1561 3585 c-729 -105 -1313 -621 -1501 -1327 -217 -818 174 -1685
930 -2063 251 -126 467 -181 750 -191 1040 -39 1896 819 1856 1861 -10 268
-62 478 -180 720 -180 373 -462 654 -837 834 -249 120 -453 169 -734 176 -127
3 -211 0 -284 -10z m575 -1034 c64 -29 92 -107 60 -169 -8 -15 -141 -153 -296
-306 l-281 -279 282 -282 c155 -156 285 -289 290 -297 5 -7 9 -34 9 -60 0 -56
-32 -101 -85 -118 -73 -24 -77 -21 -438 338 -186 186 -345 349 -353 364 -19
37 -18 87 4 123 32 52 679 679 715 692 43 16 45 16 93 -6z"/>
</g>
</svg>
