<?xml version="1.0" standalone="no"?>
<!DOCTYPE svg PUBLIC "-//W3C//DTD SVG 20010904//EN"
 "http://www.w3.org/TR/2001/REC-SVG-20010904/DTD/svg10.dtd">
<svg version="1.0" xmlns="http://www.w3.org/2000/svg"
 width="360.000000pt" height="360.000000pt" viewBox="0 0 360.000000 360.000000"
 preserveAspectRatio="xMidYMid meet">

<g transform="translate(0.000000,360.000000) scale(0.100000,-0.100000)"
fill="#000000" stroke="none">
<path d="M1560 3584 c-922 -130 -1591 -925 -1556 -1849 10 -265 62 -476 177
-714 180 -375 461 -657 834 -837 242 -118 452 -170 720 -180 842 -32 1588 521
1805 1338 217 818 -174 1685 -930 2063 -172 86 -321 136 -515 171 -119 22
-407 27 -535 8z m7 -1024 c32 -12 687 -660 709 -702 19 -37 18 -87 -4 -123
-10 -17 -168 -176 -350 -355 -371 -363 -376 -367 -455 -332 -67 30 -96 107
-63 170 8 15 141 153 296 306 l281 279 -282 282 c-155 156 -285 289 -290 297
-5 7 -9 34 -9 59 0 54 26 94 74 115 38 16 57 17 93 4z"/>
</g>
</svg>
